<mxfile host="app.diagrams.net" modified="2023-11-07T10:01:23.642Z" agent="Mozilla/5.0 (Windows NT 10.0; Win64; x64) AppleWebKit/537.36 (KHTML, like Gecko) Chrome/119.0.0.0 Safari/537.36" etag="xbhxWY2-MYqAPDL-BVBt" version="22.0.8" type="github">
  <diagram id="R2lEEEUBdFMjLlhIrx00" name="Page-1">
    <mxGraphModel dx="613" dy="686" grid="1" gridSize="10" guides="1" tooltips="1" connect="1" arrows="1" fold="1" page="1" pageScale="1" pageWidth="850" pageHeight="1100" math="0" shadow="0" extFonts="Permanent Marker^https://fonts.googleapis.com/css?family=Permanent+Marker">
      <root>
        <mxCell id="0" />
        <mxCell id="1" parent="0" />
        <mxCell id="UlR07b5k4x8QhfWgp_IP-1" value="prestamos" style="whiteSpace=wrap;html=1;align=center;fontSize=16;" vertex="1" parent="1">
          <mxGeometry x="660" y="540" width="100" height="40" as="geometry" />
        </mxCell>
        <mxCell id="UlR07b5k4x8QhfWgp_IP-2" value="autores" style="whiteSpace=wrap;html=1;align=center;fontSize=16;" vertex="1" parent="1">
          <mxGeometry x="280" y="530" width="100" height="40" as="geometry" />
        </mxCell>
        <mxCell id="UlR07b5k4x8QhfWgp_IP-3" value="libros" style="whiteSpace=wrap;html=1;align=center;fontSize=16;" vertex="1" parent="1">
          <mxGeometry x="200" y="200" width="100" height="40" as="geometry" />
        </mxCell>
        <mxCell id="UlR07b5k4x8QhfWgp_IP-4" value="miembros" style="whiteSpace=wrap;html=1;align=center;fontSize=16;" vertex="1" parent="1">
          <mxGeometry x="670" y="210" width="100" height="40" as="geometry" />
        </mxCell>
        <mxCell id="UlR07b5k4x8QhfWgp_IP-5" value="titulo" style="ellipse;whiteSpace=wrap;html=1;align=center;fontSize=16;" vertex="1" parent="1">
          <mxGeometry x="70" y="190" width="100" height="40" as="geometry" />
        </mxCell>
        <mxCell id="UlR07b5k4x8QhfWgp_IP-6" value="libro_id" style="ellipse;whiteSpace=wrap;html=1;align=center;fontSize=16;" vertex="1" parent="1">
          <mxGeometry x="80" y="140" width="100" height="40" as="geometry" />
        </mxCell>
        <mxCell id="UlR07b5k4x8QhfWgp_IP-7" value="genero" style="ellipse;whiteSpace=wrap;html=1;align=center;fontSize=16;" vertex="1" parent="1">
          <mxGeometry x="60" y="240" width="100" height="40" as="geometry" />
        </mxCell>
        <mxCell id="UlR07b5k4x8QhfWgp_IP-9" value="Attribute" style="ellipse;whiteSpace=wrap;html=1;align=center;fontSize=16;" vertex="1" parent="1">
          <mxGeometry x="550" y="270" width="100" height="40" as="geometry" />
        </mxCell>
        <mxCell id="UlR07b5k4x8QhfWgp_IP-10" value="Attribute" style="ellipse;whiteSpace=wrap;html=1;align=center;fontSize=16;" vertex="1" parent="1">
          <mxGeometry x="540" y="180" width="100" height="40" as="geometry" />
        </mxCell>
        <mxCell id="UlR07b5k4x8QhfWgp_IP-11" value="Attribute" style="ellipse;whiteSpace=wrap;html=1;align=center;fontSize=16;" vertex="1" parent="1">
          <mxGeometry x="630" y="100" width="100" height="40" as="geometry" />
        </mxCell>
        <mxCell id="UlR07b5k4x8QhfWgp_IP-12" value="Attribute" style="ellipse;whiteSpace=wrap;html=1;align=center;fontSize=16;" vertex="1" parent="1">
          <mxGeometry x="540" y="440" width="100" height="40" as="geometry" />
        </mxCell>
        <mxCell id="UlR07b5k4x8QhfWgp_IP-13" value="Attribute" style="ellipse;whiteSpace=wrap;html=1;align=center;fontSize=16;" vertex="1" parent="1">
          <mxGeometry x="550" y="390" width="100" height="40" as="geometry" />
        </mxCell>
        <mxCell id="UlR07b5k4x8QhfWgp_IP-14" value="Attribute" style="ellipse;whiteSpace=wrap;html=1;align=center;fontSize=16;" vertex="1" parent="1">
          <mxGeometry x="530" y="490" width="100" height="40" as="geometry" />
        </mxCell>
        <mxCell id="UlR07b5k4x8QhfWgp_IP-15" value="Attribute" style="ellipse;whiteSpace=wrap;html=1;align=center;fontSize=16;" vertex="1" parent="1">
          <mxGeometry x="680" y="450" width="100" height="40" as="geometry" />
        </mxCell>
        <mxCell id="UlR07b5k4x8QhfWgp_IP-16" value="Attribute" style="ellipse;whiteSpace=wrap;html=1;align=center;fontSize=16;" vertex="1" parent="1">
          <mxGeometry x="700" y="400" width="100" height="40" as="geometry" />
        </mxCell>
        <mxCell id="UlR07b5k4x8QhfWgp_IP-17" value="Attribute" style="ellipse;whiteSpace=wrap;html=1;align=center;fontSize=16;" vertex="1" parent="1">
          <mxGeometry x="730" y="500" width="100" height="40" as="geometry" />
        </mxCell>
        <mxCell id="UlR07b5k4x8QhfWgp_IP-18" value="nombre" style="ellipse;whiteSpace=wrap;html=1;align=center;fontSize=16;" vertex="1" parent="1">
          <mxGeometry x="110" y="480" width="100" height="40" as="geometry" />
        </mxCell>
        <mxCell id="UlR07b5k4x8QhfWgp_IP-19" value="autor_id" style="ellipse;whiteSpace=wrap;html=1;align=center;fontSize=16;" vertex="1" parent="1">
          <mxGeometry x="120" y="430" width="100" height="40" as="geometry" />
        </mxCell>
        <mxCell id="UlR07b5k4x8QhfWgp_IP-20" value="fecha_nacimiento" style="ellipse;whiteSpace=wrap;html=1;align=center;fontSize=16;" vertex="1" parent="1">
          <mxGeometry x="100" y="530" width="100" height="40" as="geometry" />
        </mxCell>
      </root>
    </mxGraphModel>
  </diagram>
</mxfile>
